<?xml version="1.0" encoding="iso-8859-1"?>
<svg xmlns="http://www.w3.org/2000/svg" width="18px" height="18px" fill="none"
    viewBox="0 0 16 16" color="#00ceb8">
    <g id='score'>
        <path fill="#00ceb8"
            fill-rule="evenodd"
            d="m 9 9 h -2 c -0.5 0 -0.5 1 0 1 h 2 c 0.5 0 0.5 -1 0 -1 z m -5.207 -1.277 a 0.523 0.523 0 0 1 -0.322 -0.103 c -0.091 -0.072 -0.137 -0.158 -0.137 -0.256 s 0.046 -0.183 0.137 -0.255 a 0.498 0.498 0 0 1 0.322 -0.109 h 2.416 c 0.123 0 0.23 0.036 0.322 0.109 c 0.09 0.072 0.136 0.157 0.136 0.255 c 0 0.235 -0.08 0.46 -0.241 0.678 c -0.641 0.88 -0.93 1.942 -1.206 2.96 l -0.087 0.32 a 0.486 0.486 0 0 0 -0.026 0.083 c -0.015 0.06 -0.027 0.108 -0.106 0.153 c -0.108 0.064 -0.189 0.109 -0.323 0.109 h -0.282 a 0.34 0.34 0 0 1 -0.265 -0.109 a 0.204 0.204 0 0 1 -0.04 -0.236 c 0.305 -1.405 0.645 -2.491 1.498 -3.574 v -0.013 c 0 -0.008 -0.003 -0.013 -0.008 -0.013 h -1.788 z m 5.66 -0.111 c 0.079 0.067 0.172 0.1 0.278 0.1 h 1.667 c 0.005 0 0.007 0.003 0.007 0.007 s -0.002 0.008 -0.007 0.013 l -1.136 0.933 a 0.65 0.65 0 0 0 -0.252 0.523 a 0.3 0.3 0 0 0 0.098 0.221 c 0.07 0.063 0.151 0.095 0.244 0.095 h 0.077 c 0.474 0 0.804 0.052 0.99 0.157 c 0.19 0.101 0.286 0.27 0.286 0.505 c 0 0.256 -0.084 0.452 -0.251 0.586 c -0.167 0.135 -0.405 0.202 -0.711 0.202 c -0.293 0 -0.628 -0.057 -1.005 -0.17 a 0.308 0.308 0 0 0 -0.258 0.038 a 0.217 0.217 0 0 0 -0.111 0.195 v 0.07 c 0 0.109 0.035 0.208 0.104 0.296 c 0.07 0.088 0.16 0.145 0.272 0.17 c 0.335 0.076 0.682 0.114 1.04 0.114 c 0.604 0 1.069 -0.13 1.394 -0.391 c 0.326 -0.265 0.488 -0.64 0.488 -1.123 c 0 -0.395 -0.123 -0.702 -0.37 -0.92 c -0.246 -0.223 -0.583 -0.335 -1.01 -0.335 h -0.112 c -0.005 0 -0.007 -0.002 -0.007 -0.006 s 0.002 -0.008 0.007 -0.013 l 1.13 -0.927 a 0.726 0.726 0 0 0 0.293 -0.592 a 0.332 0.332 0 0 0 -0.119 -0.253 a 0.379 0.379 0 0 0 -0.272 -0.107 h -2.476 c -0.106 0 -0.2 0.036 -0.278 0.107 a 0.33 0.33 0 0 0 -0.119 0.253 c 0 0.096 0.04 0.18 0.119 0.252 z"
            clip-rule="evenodd">
        </path>
    </g>
    <g id='circle'>
        <path stroke="#00ceb8"
            stroke-linecap="round" stroke-linejoin="round" stroke-width="1.5"
            d="m 11.124 3 h -6.247 c -2.178 0 -3.543 1.387 -3.543 3.351 v 5.298 c 0 1.964 1.359 3.351 3.543 3.351 h 6.247 c 2.185 0 3.543 -1.387 3.543 -3.351 v -5.299 c 0 -1.963 -1.357 -3.35 -3.543 -3.35 z"
            clip-rule="evenodd">
        </path>
    </g>
</svg>