<?xml version="1.0" encoding="iso-8859-1"?>
<svg height="18px" width="18px" version="1.1" id="Layer_1" xmlns="http://www.w3.org/2000/svg" xmlns:xlink="http://www.w3.org/1999/xlink" 
	 viewBox="0 0 16 16" xml:space="preserve" fill="none">
	<path id="step_1" style="fill:#022047;" fill-rule="evenodd"
		d="m 9.98165 11.7555 h -3.9623 v -5.5959 c 0 -0.6148 0.5001 -1.1149 1.115 -1.1149 h 1.7323 c 0.6148 0 1.115 0.5001 1.115 1.1149 v 5.5959 z m -3.4189 -0.5434 h 2.8755 v -5.0525 c 0 -0.3152 -0.2564 -0.5716 -0.5716 -0.5716 h -1.7323 c -0.3152 0 -0.5716 0.2564 -0.5716 0.5716 l 0 5.0525 l 0 0 z"
		clip-rule="evenodd">
	</path>
	<path id="step_2" style="fill:#022047;" fill-rule="evenodd"
		d="m 6.56275 11.7555 h -3.9623 v -3.9929 c 0 -0.6148 0.5001 -1.1149 1.115 -1.1149 h 2.8472 v 5.108 h 0 z m -3.4188 -0.5434 h 2.8755 v -4.0211 h -2.3038 c -0.3152 0 -0.5716 0.2564 -0.5716 0.5716 c 0 0 0 3.4495 0 3.4495 z"
		clip-rule="evenodd">
	</path>
	<path id="step_3" style="fill:#022047;" fill-rule="evenodd"
		d="m 13.40045 11.7555 h -3.9622 v -4.5645 h 2.8473 c 0.6148 0 1.115 0.5002 1.115 1.115 v 3.4496 z m -0.5434 -3.4496 c 0 -0.3152 -0.2564 -0.5716 -0.5716 -0.5716 h -2.3039 v 3.4777 h 2.8755 v -2.9062 z"
		clip-rule="evenodd">
	</path>
	<path id="number_1" style="fill:#022047;" fill-rule="evenodd"
		d="m 8.66405 8.6431 v 0.4228 h -1.2684 v -0.4228 h 0.4169 v -0.7487 c -0.0176 0.0235 -0.045 0.0475 -0.0822 0.0719 c -0.0372 0.0245 -0.0788 0.047 -0.1248 0.0675 c -0.046 0.0205 -0.093 0.0372 -0.1409 0.0499 c -0.048 0.0127 -0.0906 0.0191 -0.1277 0.0191 v -0.4345 c 0.0313 0 0.0719 -0.0107 0.1218 -0.0323 c 0.0499 -0.0215 0.0993 -0.0474 0.1483 -0.0778 c 0.0489 -0.0303 0.0929 -0.0612 0.1321 -0.0925 c 0.0391 -0.0313 0.0636 -0.0568 0.0734 -0.0763 h 0.4786 v 1.2537 h 0.3729 v 0.0001 z"
		clip-rule="evenodd">
	</path>
	<path id="number_2" style="fill:#022047;" fill-rule="evenodd"
		d="m 3.85055 10.4934 c 0 -0.092 0.0068 -0.1742 0.0205 -0.2466 c 0.0137 -0.0724 0.0372 -0.1385 0.0705 -0.1982 c 0.0333 -0.0597 0.0782 -0.115 0.1351 -0.1659 c 0.0568 -0.0509 0.1282 -0.1008 0.2143 -0.1497 c 0.092 -0.0509 0.1688 -0.0929 0.2305 -0.1262 c 0.0616 -0.0333 0.1106 -0.0626 0.1468 -0.0881 c 0.0362 -0.0254 0.0621 -0.0484 0.0778 -0.069 c 0.0156 -0.0205 0.0235 -0.0445 0.0235 -0.0719 c 0 -0.0548 -0.0196 -0.0988 -0.0587 -0.1321 c -0.0392 -0.0333 -0.095 -0.0499 -0.1674 -0.0499 c -0.0822 0 -0.1537 0.0201 -0.2143 0.0602 c -0.0607 0.0402 -0.1194 0.0925 -0.1762 0.1571 l -0.2995 -0.3464 c 0.0313 -0.0352 0.0734 -0.0694 0.1263 -0.1028 c 0.0528 -0.0333 0.1125 -0.0631 0.1791 -0.0896 c 0.0665 -0.0264 0.1395 -0.0474 0.2187 -0.0631 c 0.0793 -0.0156 0.1619 -0.0235 0.2481 -0.0235 c 0.2114 0 0.3733 0.046 0.4859 0.138 c 0.1125 0.092 0.1688 0.2163 0.1688 0.3729 c 0 0.0646 -0.0103 0.1223 -0.0308 0.1732 c -0.0205 0.0509 -0.0475 0.0964 -0.0807 0.1365 c -0.0333 0.0402 -0.0705 0.0754 -0.1116 0.1057 c -0.0411 0.0304 -0.0832 0.0583 -0.1262 0.0837 c -0.0294 0.0176 -0.0646 0.0382 -0.1057 0.0617 c -0.0411 0.0235 -0.0818 0.0475 -0.1218 0.0719 c -0.0402 0.0245 -0.0774 0.049 -0.1116 0.0734 c -0.0343 0.0245 -0.0602 0.0465 -0.0778 0.0661 h 0.7986 v 0.4228 h -1.4622 v -0.0001 z"
		clip-rule="evenodd">
	</path>
	<path id="number_3" style="fill:#022047;" fill-rule="evenodd"
		d="m 11.71495 9.5824 c 0.0533 0.0103 0.1024 0.0289 0.1471 0.0555 c 0.0447 0.0267 0.083 0.0603 0.1149 0.1007 c 0.0318 0.0405 0.0564 0.0869 0.0736 0.1394 c 0.0172 0.0525 0.0258 0.1088 0.0258 0.1691 c 0 0.0809 -0.0164 0.1536 -0.049 0.2181 c -0.0327 0.0645 -0.0796 0.1196 -0.1407 0.1652 c -0.0611 0.0456 -0.1347 0.0809 -0.2207 0.1058 c -0.086 0.0249 -0.1824 0.0374 -0.2891 0.0374 c -0.2616 0 -0.4663 -0.0766 -0.6143 -0.2297 l 0.222 -0.2942 c 0.0465 0.0482 0.0994 0.0848 0.1587 0.1097 c 0.0594 0.025 0.1303 0.0374 0.2129 0.0374 c 0.1944 0 0.2917 -0.0714 0.2917 -0.2142 c 0 -0.0774 -0.0289 -0.1359 -0.0865 -0.1755 c -0.0577 -0.0396 -0.1484 -0.0594 -0.2723 -0.0594 h -0.0774 v -0.2968 h 0.0852 c 0.0963 0 0.1717 -0.0198 0.2259 -0.0594 c 0.0542 -0.0396 0.0813 -0.092 0.0813 -0.1574 c 0 -0.0568 -0.0198 -0.0998 -0.0594 -0.1291 c -0.0396 -0.0292 -0.0921 -0.0439 -0.1574 -0.0439 c -0.0706 0 -0.1347 0.0168 -0.1923 0.0503 c -0.0577 0.0336 -0.1063 0.0813 -0.1458 0.1432 l -0.2607 -0.2994 c 0.0275 -0.0361 0.0636 -0.0697 0.1084 -0.1007 c 0.0447 -0.031 0.0955 -0.0572 0.1523 -0.0787 c 0.0568 -0.0215 0.1178 -0.0383 0.1833 -0.0503 c 0.0654 -0.012 0.1325 -0.0181 0.2013 -0.0181 c 0.0912 0 0.1746 0.0108 0.2504 0.0323 c 0.0757 0.0215 0.1402 0.0525 0.1936 0.0929 c 0.0533 0.0405 0.0946 0.0887 0.1239 0.1445 c 0.0292 0.0559 0.0439 0.1183 0.0439 0.1871 c 0 0.0516 -0.0082 0.1007 -0.0245 0.1471 c -0.0164 0.0465 -0.0392 0.0887 -0.0684 0.1265 c -0.0293 0.0379 -0.0641 0.0693 -0.1045 0.0942 c -0.0404 0.025 -0.0848 0.0417 -0.1329 0.0503 z"
		clip-rule="evenodd">
	</path>
	<path id="circle" stroke="#022047"
            stroke-linecap="round" stroke-linejoin="round" stroke-width="1.5"
			d="m 11.124 3 h -6.247 c -2.178 0 -3.543 1.387 -3.543 3.351 v 5.298 c 0 1.964 1.359 3.351 3.543 3.351 h 6.247 c 2.185 0 3.543 -1.387 3.543 -3.351 v -5.299 c 0 -1.963 -1.357 -3.35 -3.543 -3.35 z"
			clip-rule="evenodd">
	</path>
</svg>